<?xml version="1.0" encoding="UTF-8" standalone="no"?>
<svg
   width="8.3957319mm"
   height="8.3957319mm"
   viewBox="0 0 8.3957319 8.3957319"
   version="1.1"
   id="svg8"
   inkscape:version="1.1.2 (0a00cf5339, 2022-02-04, custom)"
   sodipodi:docname="logo.svg"
   xmlns:inkscape="http://www.inkscape.org/namespaces/inkscape"
   xmlns:sodipodi="http://sodipodi.sourceforge.net/DTD/sodipodi-0.dtd"
   xmlns="http://www.w3.org/2000/svg"
   xmlns:svg="http://www.w3.org/2000/svg"
   xmlns:rdf="http://www.w3.org/1999/02/22-rdf-syntax-ns#"
   xmlns:cc="http://creativecommons.org/ns#"
   xmlns:dc="http://purl.org/dc/elements/1.1/">
  <defs
     id="defs2" />
  <sodipodi:namedview
     id="base"
     pagecolor="#ffffff"
     bordercolor="#666666"
     borderopacity="1.0"
     inkscape:pageopacity="0.0"
     inkscape:pageshadow="2"
     inkscape:zoom="4"
     inkscape:cx="-67.125"
     inkscape:cy="-16.5"
     inkscape:document-units="mm"
     inkscape:current-layer="layer1"
     inkscape:document-rotation="0"
     showgrid="true"
     inkscape:window-width="1916"
     inkscape:window-height="1033"
     inkscape:window-x="1920"
     inkscape:window-y="22"
     inkscape:window-maximized="0"
     inkscape:pagecheckerboard="0"
     fit-margin-top="0"
     fit-margin-left="0"
     fit-margin-right="0"
     fit-margin-bottom="0">
    <inkscape:grid
       type="xygrid"
       id="grid10"
       originx="-18.953176"
       originy="-12.338593" />
  </sodipodi:namedview>
  <metadata
     id="metadata5">
    <rdf:RDF>
      <cc:Work
         rdf:about="">
        <dc:format>image/svg+xml</dc:format>
        <dc:type
           rdf:resource="http://purl.org/dc/dcmitype/StillImage" />
      </cc:Work>
    </rdf:RDF>
  </metadata>
  <g
     inkscape:label="Layer 1"
     inkscape:groupmode="layer"
     id="layer1"
     transform="translate(-18.953176,-12.338593)">
    <rect
       style="fill:none;stroke:#000000;stroke-width:0.264583;stroke-opacity:1"
       id="rect12"
       width="6.614583"
       height="6.614583"
       x="19.84375"
       y="13.229166"
       rx="1.0000006"
       ry="1.0000006" />
    <circle
       style="fill:#0054a4;fill-opacity:1;stroke:none;stroke-width:0.210401;stroke-opacity:1"
       id="path843"
       cx="20.904011"
       cy="18.78808"
       r="0.52600348" />
    <path
       style="fill:none;stroke:#000000;stroke-width:0.193649;stroke-linecap:round;stroke-linejoin:round;stroke-miterlimit:4;stroke-dasharray:none;stroke-opacity:1"
       d="M 21.166666,19.84375 V 20.6375"
       id="path845" />
    <path
       style="fill:none;stroke:#000000;stroke-width:0.193649;stroke-linecap:round;stroke-linejoin:miter;stroke-miterlimit:4;stroke-dasharray:none;stroke-opacity:1"
       d="M 22.489583,19.84375 V 20.6375"
       id="path847" />
    <path
       style="fill:none;stroke:#000000;stroke-width:0.193649;stroke-linecap:round;stroke-linejoin:miter;stroke-miterlimit:4;stroke-dasharray:none;stroke-opacity:1"
       d="M 23.8125,19.84375 V 20.6375"
       id="path849" />
    <path
       style="fill:none;stroke:#000000;stroke-width:0.193649;stroke-linecap:round;stroke-linejoin:miter;stroke-miterlimit:4;stroke-dasharray:none;stroke-opacity:1"
       d="M 25.135416,19.84375 V 20.6375"
       id="path851" />
    <path
       style="fill:none;stroke:#000000;stroke-width:0.193649;stroke-linecap:round;stroke-linejoin:miter;stroke-miterlimit:4;stroke-dasharray:none;stroke-opacity:1"
       d="m 26.458333,18.520833 h 0.79375"
       id="path853" />
    <path
       style="fill:none;stroke:#000000;stroke-width:0.193649;stroke-linecap:round;stroke-linejoin:miter;stroke-miterlimit:4;stroke-dasharray:none;stroke-opacity:1"
       d="m 26.458333,17.197916 h 0.79375"
       id="path855" />
    <path
       style="fill:none;stroke:#000000;stroke-width:0.193649;stroke-linecap:round;stroke-linejoin:miter;stroke-miterlimit:4;stroke-dasharray:none;stroke-opacity:1"
       d="m 26.458333,15.875 h 0.79375"
       id="path857" />
    <path
       style="fill:none;stroke:#000000;stroke-width:0.193649;stroke-linecap:round;stroke-linejoin:miter;stroke-miterlimit:4;stroke-dasharray:none;stroke-opacity:1"
       d="m 26.458333,14.552083 h 0.79375"
       id="path859" />
    <path
       style="fill:none;stroke:#000000;stroke-width:0.193649;stroke-linecap:round;stroke-linejoin:miter;stroke-miterlimit:4;stroke-dasharray:none;stroke-opacity:1"
       d="m 25.135416,13.229167 v -0.79375"
       id="path861" />
    <path
       style="fill:none;stroke:#000000;stroke-width:0.193649;stroke-linecap:round;stroke-linejoin:miter;stroke-miterlimit:4;stroke-dasharray:none;stroke-opacity:1"
       d="m 23.8125,12.435417 v 0.79375"
       id="path863" />
    <path
       style="fill:none;stroke:#000000;stroke-width:0.193649;stroke-linecap:round;stroke-linejoin:miter;stroke-miterlimit:4;stroke-dasharray:none;stroke-opacity:1"
       d="m 22.489583,12.435417 v 0.79375"
       id="path865" />
    <path
       style="fill:none;stroke:#000000;stroke-width:0.193649;stroke-linecap:round;stroke-linejoin:miter;stroke-miterlimit:4;stroke-dasharray:none;stroke-opacity:1"
       d="m 21.166666,12.435417 v 0.79375"
       id="path867" />
    <path
       style="fill:none;stroke:#000000;stroke-width:0.193649;stroke-linecap:round;stroke-linejoin:miter;stroke-miterlimit:4;stroke-dasharray:none;stroke-opacity:1"
       d="M 19.84375,14.552083 H 19.05"
       id="path869" />
    <path
       style="fill:none;stroke:#000000;stroke-width:0.193649;stroke-linecap:round;stroke-linejoin:miter;stroke-miterlimit:4;stroke-dasharray:none;stroke-opacity:1"
       d="M 19.84375,15.875 H 19.05"
       id="path871" />
    <path
       style="fill:none;stroke:#000000;stroke-width:0.193649;stroke-linecap:round;stroke-linejoin:miter;stroke-miterlimit:4;stroke-dasharray:none;stroke-opacity:1"
       d="M 19.84375,17.197916 H 19.05"
       id="path873" />
    <path
       style="fill:none;stroke:#000000;stroke-width:0.193649;stroke-linecap:round;stroke-linejoin:miter;stroke-miterlimit:4;stroke-dasharray:none;stroke-opacity:1"
       d="M 19.84375,18.520833 H 19.05"
       id="path875" />
    <g
       id="g1055"
       transform="matrix(1.1320488,0,0,1.1320488,-3.2142876,-2.2160088)">
      <ellipse
         style="fill:#0054a4;fill-opacity:1;stroke:none;stroke-width:0.480745;stroke-linecap:round;stroke-linejoin:round;stroke-miterlimit:4;stroke-dasharray:none;stroke-opacity:1"
         id="path1034"
         cx="23.213882"
         cy="15.970034"
         rx="2.1861179"
         ry="2.0216308" />
      <g
         id="g1030"
         transform="matrix(0.00861323,0,0,0.00861323,20.808218,13.881664)">
        <g
           id="g974">
          <path
             d="M 542.346,235.523 C 535.699,158.722 490.238,87.897 426.553,45.471 391.653,22.222 351.217,7.952 309.713,2.554 195.319,-12.325 74.841,37.92 31.685,150.284 c -37.099,96.597 -0.52,192.495 65.913,265.632 23.974,26.393 27.298,76.017 27.298,109.446 v 67.792 c 0,10.408 8.438,18.846 18.846,18.846 h 245.301 c 9.929,0 18.135,-7.704 18.806,-17.61 0.903,-13.335 2.386,-25.062 2.386,-25.062 5.129,-21.996 23.884,-39.634 63.768,-33.231 41.844,6.713 68.237,-5.756 70.584,-33.617 0.774,-9.191 1.273,-87.695 1.273,-87.695 1.999,-1.142 15.117,-3.75 34.236,-8.097 14.867,-3.38 20.103,-21.838 9.263,-32.561 -43.469,-43.001 -49.299,-63.047 -50.378,-67.362 -5.383,-21.438 5.315,-48.716 3.365,-71.242 z m -81.019,-25.665 c -6.039,7.651 -12.918,9.146 -16.556,9.346 -1.198,0.066 -2.033,1.206 -1.706,2.36 1.868,6.582 3.768,24.711 -28.687,31.77 -30.438,6.615 -48.844,30.29 -60.863,42.313 -9.233,9.225 -21.723,13.495 -34.183,16.299 -12.729,2.864 -25.341,5.37 -35.384,14.415 -10.577,9.527 -25.495,61.985 -28.027,71.104 -0.222,0.801 -0.951,1.352 -1.783,1.352 h -15.621 c -0.877,0 -1.636,-0.614 -1.817,-1.473 l -7.569,-35.803 c -0.318,-1.504 -73.698,4.534 -79.347,-28.22 -0.198,-1.149 -1.359,-1.862 -2.456,-1.466 -7.056,2.546 -29.692,8.81 -41.91,-10.122 -8.663,-13.423 -6.362,-25.955 -5.155,-30.282 0.25,-0.896 -0.2,-1.828 -1.055,-2.196 -6.225,-2.677 -28.719,-15.289 -25.669,-56.784 2.461,-33.448 25.085,-48.273 21.922,-53.417 -9.124,-14.837 -1.193,-39.431 17.5,-44.921 0.753,-0.221 1.288,-0.888 1.359,-1.67 l 0.789,-8.719 c 2.596,-30.743 42.991,-50.226 70.455,-37.445 1.059,0.493 2.318,-0.032 2.67,-1.145 3.438,-10.898 10.377,-13.898 12.226,-14.938 8.515,-4.791 19.572,-4.199 28.374,-0.586 0.712,0.292 1.523,0.114 2.048,-0.448 C 233.383,66.503 243.638,58 260.621,58 c 17.42,0 26.275,8.465 29.371,10.835 0.569,0.435 1.334,0.513 1.972,0.188 3.919,-2.004 18.228,-8.411 32.554,-3.476 10.818,3.732 16.959,13.578 18.893,17.161 0.413,0.766 1.281,1.157 2.128,0.957 5.137,-1.217 22.902,-4.629 37.827,2.111 15.772,7.13 20.693,17.433 21.948,20.887 0.255,0.703 0.914,1.174 1.662,1.204 3.42,0.136 12.858,0.964 18.691,5.866 10.3,8.66 9.294,15.488 8.108,18.41 -0.361,0.89 0.038,1.91 0.901,2.333 4.704,2.307 17.892,9.927 26.073,26.112 11.262,22.296 6.756,41.443 0.578,49.27 z"
             id="path972" />
        </g>
        <g
           id="g976" />
        <g
           id="g978" />
        <g
           id="g980" />
        <g
           id="g982" />
        <g
           id="g984" />
        <g
           id="g986" />
        <g
           id="g988" />
        <g
           id="g990" />
        <g
           id="g992" />
        <g
           id="g994" />
        <g
           id="g996" />
        <g
           id="g998" />
        <g
           id="g1000" />
        <g
           id="g1002" />
        <g
           id="g1004" />
      </g>
    </g>
  </g>
</svg>
